<?xml version="1.0" encoding="UTF-8"?>
<!DOCTYPE svg PUBLIC "-//W3C//DTD SVG 1.1//EN" "http://www.w3.org/Graphics/SVG/1.1/DTD/svg11.dtd">
<!-- Creator: CorelDRAW -->
<svg xmlns="http://www.w3.org/2000/svg" xml:space="preserve" width="1.70666in" height="1.70666in" version="1.1" style="shape-rendering:geometricPrecision; text-rendering:geometricPrecision; image-rendering:optimizeQuality; fill-rule:evenodd; clip-rule:evenodd"
viewBox="0 0 1707 1707"
 xmlns:xlink="http://www.w3.org/1999/xlink">
 <defs>
  <style type="text/css">
   <![CDATA[
    .fil0 {fill:#606062}
    .fil2 {fill:#99A4AC}
    .fil1 {fill:#F3A766}
    .fil3 {fill:#FFE600}
   ]]>
  </style>
 </defs>
 <g id="Layer_x0020_1">
  <metadata id="CorelCorpID_0Corel-Layer"/>
  <path class="fil0" d="M487 1402l-194 0c-30,0 -30,-46 0,-46l194 0c31,0 31,46 0,46zm604 222l-926 0c-13,0 -23,-11 -23,-23l0 -507c-18,0 -43,2 -43,-24l0 -104c0,-13 10,-24 23,-24l470 0 0 -71c-72,0 -59,8 -59,-128 0,-13 11,-24 23,-24l594 0c13,0 24,11 24,24 0,136 12,128 -60,128l0 71 471 0c13,0 23,11 23,24l0 104c0,26 -25,24 -43,24l0 507c0,12 -10,23 -23,23l-451 0zm-499 -47l0 -483 -404 0 0 483 404 0zm0 -530l0 -58 -447 0 0 58 447 0zm23 -223c168,-2 343,0 512,0l0 -58 -547 0 0 58 35 0zm24 47l0 706 429 0 0 -706 -429 0zm475 118l0 58 448 0 0 -58 -448 0zm0 105l0 483 404 0 0 -483 -404 0zm-1030 -265c-15,0 -26,-14 -23,-28l18 -96 -71 -67c-14,-13 -6,-37 13,-40l97 -12 41 -88c8,-18 34,-18 42,0l42 88 97 12c19,3 27,27 13,40l-71 67 18 96c4,19 -17,34 -34,25l-86 -47c-15,8 -84,50 -96,50zm-8 -191c63,60 56,38 40,123 76,-42 53,-42 129,0 -16,-85 -24,-63 40,-123 -86,-10 -68,3 -105,-75 -37,78 -18,65 -104,75zm1354 191c-15,0 -26,-14 -23,-28l18 -96 -71 -67c-14,-13 -6,-37 13,-40l97 -12 41 -88c8,-18 34,-18 42,0l42 88 97 12c19,3 27,27 13,40l-71 67 18 96c4,19 -17,34 -34,25l-86 -47c-15,8 -84,50 -96,50zm-8 -191c63,60 56,38 40,123 76,-42 53,-42 129,0 -16,-85 -24,-63 40,-123 -86,-10 -68,3 -105,-75 -36,78 -18,65 -104,75zm-715 -59c-14,0 -25,-13 -23,-27l29 -152 -112 -105c-14,-13 -6,-38 13,-40l153 -19 65 -140c8,-17 34,-17 42,0l66 140 153 19c19,2 27,27 13,40l-113 105 29 152c4,19 -17,34 -34,24l-135 -74 -135 74c-3,2 -7,3 -11,3zm-38 -284l85 80c6,6 9,14 7,21l-22 116 103 -57c7,-4 16,-4 23,0l102 57 -22 -116c-1,-7 1,-15 7,-21l86 -80 -117 -15c-8,-1 -14,-6 -18,-13l-50 -106 -50 106c-3,7 -10,12 -18,13l-116 15zm360 350l-351 0c-30,0 -30,-46 0,-46l351 0c30,0 30,46 0,46zm438 670l-301 0c-30,0 -30,-46 0,-46l301 0c30,0 30,46 0,46zm-53 87l-195 0c-30,0 -30,-46 0,-46l195 0c30,0 30,46 0,46zm-410 -198l-301 0c-30,0 -30,-47 0,-47l301 0c30,0 30,47 0,47zm-54 87l-194 0c-30,0 -30,-47 0,-47l194 0c31,0 31,47 0,47zm-409 24l-301 0c-30,0 -30,-46 0,-46l301 0c30,0 30,46 0,46z"/>
  <path class="fil1" d="M1114 1094l0 483 404 0 0 -483 -404 0zm52 175l301 0c30,0 30,46 0,46l-301 0c-30,0 -30,-46 0,-46zm53 87l195 0c30,0 30,46 0,46l-195 0c-30,0 -30,-46 0,-46z"/>
  <path class="fil1" d="M703 1157l301 0c30,0 30,47 0,47l-301 0c-30,0 -30,-47 0,-47zm365 420l0 -706 -429 0 0 706 429 0zm-312 -333l194 0c31,0 31,47 0,47l-194 0c-30,0 -30,-47 0,-47z"/>
  <path class="fil1" d="M592 1577l0 -483 -404 0 0 483 404 0zm-352 -308l301 0c30,0 30,46 0,46l-301 0c-30,0 -30,-46 0,-46zm53 87l194 0c31,0 31,46 0,46l-194 0c-30,0 -30,-46 0,-46z"/>
  <polygon class="fil2" points="145,1047 592,1047 592,989 145,989 "/>
  <path class="fil2" d="M615 824c168,-2 343,0 512,0l0 -58 -547 0 0 58 35 0z"/>
  <polygon class="fil2" points="1562,989 1114,989 1114,1047 1562,1047 "/>
  <path class="fil3" d="M1462 761c76,-42 53,-42 129,0 -16,-85 -24,-63 40,-123 -86,-10 -68,3 -105,-75 -36,78 -18,65 -104,75 63,60 56,38 40,123z"/>
  <path class="fil3" d="M967 512l-22 -116c-1,-7 1,-15 7,-21l86 -80 -117 -15c-8,-1 -14,-6 -18,-13l-50 -106 -50 106c-3,7 -10,12 -18,13l-116 15 85 80c6,6 9,14 7,21l-22 116 103 -57c7,-4 16,-4 23,0l102 57z"/>
  <path class="fil3" d="M245 761c-16,-85 -24,-63 40,-123 -86,-10 -68,3 -105,-75 -37,78 -18,65 -104,75 63,60 56,38 40,123 76,-42 53,-42 129,0z"/>
 </g>
</svg>
